<svg width="460" height="193" viewBox="0 0 460 193" fill="none" xmlns="http://www.w3.org/2000/svg">
<path d="M69.7099 81.5194C69.7099 86.9586 68.3919 91.6865 65.756 95.7032C63.1201 99.7198 59.2708 102.816 54.2081 104.992C49.1873 107.167 43.0787 108.255 35.8822 108.255C32.7023 108.255 29.5852 108.046 26.5309 107.628C23.5184 107.209 20.6105 106.603 17.8072 105.808C15.0458 104.971 12.4099 103.946 9.89946 102.732V84.6574C14.2508 86.582 18.7696 88.3184 23.4557 89.8665C28.1417 91.4146 32.786 92.1886 37.3884 92.1886C40.5683 92.1886 43.1205 91.7702 45.0451 90.9334C47.0116 90.0966 48.4342 88.946 49.3128 87.4816C50.1915 86.0172 50.6308 84.3436 50.6308 82.4608C50.6308 80.1596 49.8568 78.1931 48.3087 76.5613C46.7606 74.9296 44.6267 73.4024 41.9071 71.9798C39.2294 70.5573 36.196 69.0301 32.8069 67.3983C30.6731 66.3942 28.3509 65.1808 25.8405 63.7582C23.3301 62.2938 20.9452 60.5156 18.6859 58.4236C16.4265 56.3316 14.5646 53.8003 13.1002 50.8297C11.6777 47.8172 10.9664 44.2189 10.9664 40.0349C10.9664 34.5538 12.2216 29.8678 14.732 25.9766C17.2424 22.0855 20.8197 19.1148 25.464 17.0647C30.1501 14.9727 35.673 13.9267 42.0327 13.9267C46.8024 13.9267 51.3421 14.4915 55.6516 15.6212C60.003 16.709 64.5426 18.299 69.2706 20.391L62.9946 35.5162C58.7687 33.8007 54.9822 32.4828 51.635 31.5623C48.2878 30.6 44.8778 30.1188 41.4051 30.1188C38.9783 30.1188 36.9072 30.5163 35.1918 31.3112C33.4764 32.0644 32.1793 33.1522 31.3007 34.5748C30.422 35.9555 29.9827 37.5663 29.9827 39.4073C29.9827 41.583 30.6103 43.424 31.8655 44.9302C33.1626 46.3946 35.0872 47.8172 37.6394 49.1979C40.2335 50.5786 43.4552 52.1895 47.3045 54.0304C51.9906 56.2479 55.9863 58.5701 59.2917 60.9968C62.6389 63.3817 65.2121 66.2059 67.0112 69.4694C68.8103 72.6911 69.7099 76.7078 69.7099 81.5194ZM116.597 107H97.1411V31.4368H72.2253V15.2446H141.513V31.4368H116.597V107ZM203.336 107H150.492V15.2446H203.336V31.1857H169.948V51.3317H201.014V67.2728H169.948V90.9334H203.336V107ZM273.57 107L266.917 85.1595H233.466L226.814 107H205.852L238.236 14.8681H262.022L294.532 107H273.57ZM262.273 68.8418L255.621 47.5034C255.202 46.0808 254.637 44.2608 253.926 42.0432C253.257 39.7839 252.566 37.5036 251.855 35.2024C251.186 32.8593 250.642 30.8301 250.223 29.1146C249.805 30.8301 249.219 32.9639 248.466 35.5162C247.755 38.0266 247.064 40.4115 246.395 42.6708C245.725 44.9302 245.244 46.541 244.951 47.5034L238.362 68.8418H262.273ZM377.129 60.2437C377.129 70.5782 375.142 79.2182 371.167 86.1636C367.234 93.0672 361.523 98.2763 354.034 101.791C346.544 105.264 337.528 107 326.984 107H301.001V15.2446H329.808C339.431 15.2446 347.778 16.9601 354.849 20.391C361.92 23.78 367.401 28.8218 371.293 35.5162C375.184 42.1687 377.129 50.4112 377.129 60.2437ZM356.92 60.7458C356.92 53.9677 355.916 48.4029 353.908 44.0516C351.942 39.6583 349.013 36.4157 345.122 34.3237C341.272 32.2317 336.503 31.1857 330.812 31.1857H320.457V90.9334H328.804C338.302 90.9334 345.352 88.4021 349.954 83.3394C354.598 78.2768 356.92 70.7455 356.92 60.7458ZM419.56 53.0263L438.702 15.2446H459.664L429.225 71.2895V107H409.895V71.9171L379.456 15.2446H400.544L419.56 53.0263Z" fill="black"/>
<path d="M63.6252 151.525C63.6252 159.223 62.2227 165.659 59.4178 170.832C56.6129 175.975 52.5457 179.855 47.2163 182.473C41.9181 185.06 35.4824 186.353 27.9091 186.353H9.34977V118.006H29.966C36.916 118.006 42.8999 119.284 47.9176 121.84C52.9353 124.364 56.7999 128.12 59.5113 133.106C62.2539 138.061 63.6252 144.201 63.6252 151.525ZM55.2571 151.806C55.2571 145.666 54.2287 140.601 52.1717 136.612C50.1459 132.623 47.154 129.662 43.1959 127.73C39.269 125.767 34.4539 124.785 28.7505 124.785H17.2971V179.528H26.9741C36.3862 179.528 43.4453 177.206 48.1513 172.562C52.8885 167.918 55.2571 161 55.2571 151.806ZM93.4547 118.006C99.0646 118.006 103.693 118.707 107.339 120.11C111.017 121.481 113.759 123.585 115.567 126.421C117.375 129.257 118.278 132.872 118.278 137.267C118.278 140.882 117.624 143.905 116.315 146.336C115.006 148.736 113.292 150.684 111.173 152.18C109.053 153.676 106.794 154.829 104.394 155.639L123.14 186.353H113.884L97.1479 157.836H82.9362V186.353H74.9889V118.006H93.4547ZM92.9872 124.878H82.9362V151.104H93.7819C99.3606 151.104 103.459 149.967 106.077 147.692C108.726 145.417 110.051 142.066 110.051 137.641C110.051 132.997 108.648 129.709 105.843 127.777C103.069 125.844 98.7841 124.878 92.9872 124.878ZM181.954 118.006V162.231C181.954 167.061 180.972 171.362 179.009 175.133C177.077 178.904 174.147 181.881 170.22 184.062C166.293 186.213 161.369 187.288 155.447 187.288C147.001 187.288 140.566 184.997 136.14 180.416C131.746 175.835 129.549 169.71 129.549 162.044V118.006H137.543V162.277C137.543 168.074 139.07 172.547 142.124 175.694C145.209 178.842 149.806 180.416 155.915 180.416C160.091 180.416 163.504 179.668 166.153 178.172C168.833 176.645 170.812 174.526 172.09 171.814C173.399 169.072 174.053 165.908 174.053 162.324V118.006H181.954ZM226.322 186.353L203.369 125.86H202.995C203.119 127.138 203.228 128.696 203.322 130.535C203.415 132.374 203.493 134.384 203.556 136.565C203.618 138.716 203.649 140.913 203.649 143.157V186.353H196.263V118.006H208.044L229.688 174.853H230.016L251.988 118.006H263.675V186.353H255.821V142.596C255.821 140.57 255.852 138.545 255.914 136.519C255.977 134.462 256.055 132.53 256.148 130.722C256.242 128.883 256.335 127.294 256.429 125.954H256.055L232.821 186.353H226.322ZM308.604 186.353L285.65 125.86H285.276C285.401 127.138 285.51 128.696 285.604 130.535C285.697 132.374 285.775 134.384 285.837 136.565C285.9 138.716 285.931 140.913 285.931 143.157V186.353H278.545V118.006H290.325L311.97 174.853H312.297L334.269 118.006H345.956V186.353H338.103V142.596C338.103 140.57 338.134 138.545 338.196 136.519C338.258 134.462 338.336 132.53 338.43 130.722C338.523 128.883 338.617 127.294 338.71 125.954H338.336L315.102 186.353H308.604ZM398.88 186.353H360.826V118.006H398.88V125.019H368.774V147.131H397.15V154.05H368.774V179.341H398.88V186.353ZM428.663 118.006C434.273 118.006 438.901 118.707 442.547 120.11C446.225 121.481 448.967 123.585 450.775 126.421C452.583 129.257 453.486 132.872 453.486 137.267C453.486 140.882 452.832 143.905 451.523 146.336C450.214 148.736 448.5 150.684 446.38 152.18C444.261 153.676 442.002 154.829 439.602 155.639L458.348 186.353H449.092L432.356 157.836H418.144V186.353H410.197V118.006H428.663ZM428.195 124.878H418.144V151.104H428.99C434.569 151.104 438.667 149.967 441.285 147.692C443.934 145.417 445.259 142.066 445.259 137.641C445.259 132.997 443.856 129.709 441.051 127.777C438.277 125.844 433.992 124.878 428.195 124.878Z" fill="black"/>
</svg>
